<svg width="14" height="16" viewBox="0 0 14 16" fill="none" xmlns="http://www.w3.org/2000/svg">
<path d="M2.21229 1.66628C2.07933 1.82042 1.99504 2.01053 1.9701 2.21257C1.94515 2.41462 1.98066 2.61954 2.07216 2.80141C2.16365 2.98329 2.30702 3.13395 2.48413 3.23436C2.66124 3.33477 2.86414 3.38041 3.06719 3.36551L3.0672 3.36551L9.7657 2.87316L0.457559 13.6582C0.279156 13.8649 0.190176 14.134 0.210191 14.4063C0.230207 14.6787 0.35758 14.9319 0.56429 15.1103C0.770999 15.2887 1.04011 15.3776 1.31243 15.3576C1.58474 15.3376 1.83796 15.2102 2.01636 15.0035L11.3245 4.2185L11.8168 10.9159C11.8168 10.9161 11.8168 10.9163 11.8168 10.9166C11.8254 11.0522 11.8607 11.1849 11.9208 11.3068C11.981 11.429 12.0648 11.538 12.1674 11.6275C12.27 11.717 12.3893 11.7853 12.5185 11.8284C12.6476 11.8715 12.7841 11.8886 12.9199 11.8786C13.0557 11.8686 13.1882 11.8318 13.3096 11.7702C13.4311 11.7087 13.5392 11.6236 13.6275 11.5201C13.7159 11.4165 13.7829 11.2964 13.8245 11.1667C13.8661 11.0373 13.8816 10.9009 13.8702 10.7654C13.8702 10.7652 13.8702 10.765 13.8702 10.7648L13.1957 1.5887L13.1957 1.58869C13.1757 1.31643 13.0483 1.06328 12.8416 0.884915C12.635 0.706547 12.3659 0.617564 12.0936 0.637535L12.0936 0.637536L2.91659 1.31207C2.91658 1.31207 2.91657 1.31207 2.91656 1.31207C2.78161 1.32179 2.64992 1.35809 2.52905 1.41888C2.4082 1.47967 2.30055 1.56374 2.21229 1.66628ZM2.21229 1.66628C2.2123 1.66626 2.21232 1.66625 2.21233 1.66623L2.28805 1.73155L2.21225 1.66632C2.21227 1.66631 2.21228 1.66629 2.21229 1.66628Z" fill="white" stroke="white" stroke-width="0.2"/>
</svg>
