<svg width="26" height="26" viewBox="0 0 26 26" fill="none" xmlns="http://www.w3.org/2000/svg">
<path d="M13 0C5.82055 0 0 5.82055 0 13C0 20.1795 5.82055 26 13 26C20.1795 26 26 20.1795 26 13C26 5.82055 20.1795 0 13 0ZM18.9353 17.8928C18.8475 18.2438 18.6766 18.5686 18.4371 18.8398L18.0243 19.2969C17.8724 19.4651 17.6949 19.6082 17.4982 19.7209C17.4096 19.7746 17.3175 19.8223 17.2225 19.8636C16.8428 20.0291 16.4326 20.1128 16.0184 20.1094C15.9169 20.1094 15.8153 20.1046 15.7137 20.0952C11.214 19.6889 7.39223 16.4897 6.20293 12.1225C6.12727 11.8447 6.06633 11.5832 6.01656 11.3242C5.80531 10.235 6.16434 9.35238 6.6173 8.95324C6.66708 8.88213 6.72135 8.81428 6.7798 8.75012L7.19164 8.29309C7.25161 8.2281 7.31537 8.16672 7.38258 8.10926C7.67954 7.8538 8.04017 7.68357 8.42613 7.61668C8.5473 7.59472 8.67014 7.58333 8.79328 7.58266C9.32821 7.58254 9.84399 7.78168 10.24 8.14125L10.9362 8.77094C11.3184 9.11641 11.5641 9.58733 11.6289 10.0984C11.6355 10.1532 11.6421 10.2086 11.6446 10.2644C11.6598 10.5476 11.6186 10.8309 11.5234 11.098C11.4282 11.3651 11.2809 11.6106 11.0901 11.8204L10.6773 12.2774C10.4543 12.5244 10.1773 12.7164 9.86781 12.8385C10.7061 14.4348 12.0754 15.6882 13.7394 16.3825C13.8336 16.1588 13.9651 15.9528 14.1284 15.7732L14.5412 15.3161C14.9256 14.8929 15.4621 14.6392 16.0332 14.6106C16.6042 14.5821 17.1634 14.781 17.5881 15.1638L18.2848 15.793C18.5712 16.0528 18.7826 16.3846 18.897 16.754C19.0115 17.1233 19.0247 17.5166 18.9353 17.8928ZM12.4353 8.79176C12.4354 8.59674 12.5129 8.40973 12.6508 8.27178C12.7887 8.13383 12.9756 8.05621 13.1706 8.05594C14.4191 8.05728 15.6162 8.55382 16.499 9.43661C17.3819 10.3194 17.8786 11.5164 17.8801 12.7649C17.8801 12.9602 17.8025 13.1475 17.6644 13.2855C17.5263 13.4236 17.339 13.5012 17.1438 13.5012C16.9485 13.5012 16.7612 13.4236 16.6231 13.2855C16.485 13.1475 16.4074 12.9602 16.4074 12.7649C16.4065 11.9064 16.065 11.0833 15.4579 10.4763C14.8508 9.86925 14.0276 9.52788 13.1691 9.52707C12.9746 9.52613 12.7884 9.44828 12.6511 9.31051C12.5138 9.17274 12.4366 8.98625 12.4363 8.79176H12.4353ZM19.3101 13.4291C19.1155 13.4287 18.929 13.3513 18.7913 13.2138C18.6536 13.0763 18.5759 12.8899 18.5753 12.6953C18.5737 11.2817 18.0114 9.92638 17.0118 8.92678C16.0122 7.92718 14.6569 7.36489 13.2432 7.36328C13.048 7.36328 12.8607 7.2857 12.7226 7.14762C12.5845 7.00953 12.5069 6.82224 12.5069 6.62695C12.5069 6.43167 12.5845 6.24438 12.7226 6.10629C12.8607 5.9682 13.048 5.89062 13.2432 5.89062C16.995 5.89062 20.0479 8.94258 20.0479 12.6953C20.0473 12.8902 19.9693 13.077 19.8312 13.2145C19.6931 13.3521 19.506 13.4292 19.3111 13.4291H19.3101Z" fill="white"/>
</svg>
