<svg width="21" height="27" viewBox="0 0 21 27" fill="none" xmlns="http://www.w3.org/2000/svg">
<path id="Vector" d="M6.97956 25.636L6.97951 25.636L6.97466 25.6408C6.70464 25.9069 6.28257 25.8922 6.02529 25.6218L6.02356 25.62C5.90556 25.4979 5.83129 25.3324 5.81817 25.1532C5.80505 24.9738 5.85436 24.7972 5.95427 24.6561L5.95559 24.6542L12.0264 15.9448L12.3282 15.5118L11.8033 15.4573L1.72666 14.4111L1.72507 14.411C1.54212 14.3929 1.36632 14.3194 1.21931 14.197L1.02023 14.4362L1.21931 14.197C1.07211 14.0745 0.959911 13.9081 0.898502 13.7166C0.83707 13.525 0.829725 13.3183 0.877563 13.1221C0.925239 12.9266 1.02517 12.7518 1.16318 12.6179L14 0.509834L14 0.509888L14.0049 0.505103C14.2749 0.239002 14.697 0.253636 14.9543 0.524095C15.2023 0.784789 15.2358 1.19469 15.0259 1.48887L15.024 1.49166L8.95311 10.2011L8.65129 10.6341L9.17629 10.6886L19.2529 11.7348L19.2529 11.7348L19.2561 11.7351C20.0823 11.8123 20.4645 12.9076 19.8171 13.5273C19.8169 13.5275 19.8167 13.5277 19.8164 13.528L6.97956 25.636Z" fill="#0052B4" stroke="#0052B4" stroke-width="0.622428"/>
</svg>
