<svg width="31" height="31" viewBox="0 0 31 31" fill="none" xmlns="http://www.w3.org/2000/svg">
<g id="Icon">
<path id="Vector" d="M25.7757 8.81577H19.344V2.28027L25.7757 8.81577ZM19.344 10.4496H25.7757V25.9714C25.7757 27.325 24.6959 28.4222 23.3638 28.4222H8.89238C7.5603 28.4222 6.48047 27.3245 6.48047 25.9714V4.73108C6.48047 3.37752 7.5603 2.28027 8.89238 2.28027H17.736L17.7362 8.81577C17.736 9.7195 18.4546 10.4496 19.344 10.4496ZM9.69635 6.77343C9.69635 6.99706 9.87875 7.18189 10.0983 7.18189H14.1182C14.3393 7.18189 14.5202 6.99706 14.5202 6.77343V5.95649C14.5202 5.73336 14.3393 5.54802 14.1182 5.54802H10.0983C9.87875 5.54802 9.69635 5.73336 9.69635 5.95649V6.77343ZM10.0983 10.4496H14.1182C14.3393 10.4496 14.5202 10.2658 14.5202 10.0412V9.22424C14.5202 8.99958 14.3393 8.81577 14.1182 8.81577H10.0983C9.87875 8.81577 9.69635 8.99958 9.69635 9.22424V10.0412C9.69635 10.2658 9.87875 10.4496 10.0983 10.4496ZM16.4045 18.4556L16.0829 18.3739C14.9372 18.0165 14.9623 17.8072 15.0025 17.6234C15.0716 17.2245 15.8362 17.1271 16.5236 17.234C16.8046 17.2771 17.113 17.3776 17.4074 17.4814C17.9295 17.6649 18.5043 17.3824 18.6862 16.8513C18.8684 16.3183 18.5912 15.7362 18.0667 15.5508C17.7039 15.424 17.4079 15.3426 17.1341 15.2816V14.9428C17.1341 14.3796 16.6842 13.9216 16.1291 13.9216C15.574 13.9216 15.1241 14.3796 15.1241 14.9428V15.2487C13.9976 15.4942 13.2037 16.209 13.0228 17.2762C12.6506 19.4635 14.6905 20.0716 15.5613 20.3315L15.8533 20.4177C17.3246 20.8453 17.3005 20.989 17.2563 21.2489C17.1872 21.6478 16.4227 21.7468 15.7333 21.6383C15.3846 21.5856 14.9388 21.4228 14.5444 21.2793L14.3198 21.1963C13.7967 21.0128 13.2229 21.2888 13.0375 21.8202C12.853 22.3517 13.127 22.9353 13.6505 23.1238L13.8649 23.2003C14.2547 23.3427 14.6879 23.4858 15.1241 23.5839V23.9291C15.1241 24.4923 15.574 24.9503 16.1291 24.9503C16.6841 24.9503 17.134 24.4923 17.134 23.9291V23.6098C18.2576 23.3651 19.054 22.6637 19.2359 21.5965C19.6103 19.3849 17.525 18.7773 16.4045 18.4556Z" fill="#202636"/>
</g>
</svg>
