<svg width="70" height="50" viewBox="0 0 70 50" fill="none" xmlns="http://www.w3.org/2000/svg">
<g id="Frame">
<g id="Group">
<g id="Vector">
<mask id="path-1-outside-1_196_4739" maskUnits="userSpaceOnUse" x="6.86768" y="6.7998" width="57" height="42" fill="black">
<rect fill="white" x="6.86768" y="6.7998" width="57" height="42"/>
<path d="M7.37737 46.1671C8.00846 41.3938 9.05409 34.6191 10.8358 30.9025C11.2697 30.0185 11.9024 29.2452 12.6852 28.642C13.468 28.0388 14.3799 27.6219 15.3508 27.4235C14.036 26.6158 13.0077 25.4218 12.4088 24.0076C11.8099 22.5933 11.6703 21.0291 12.0094 19.5325C11.2394 19.3774 10.7352 18.5627 10.9036 17.8087C11.8464 13.1592 14.6749 10.6543 18.9547 10.5491C19.3601 9.69807 20.0088 8.98404 20.8201 8.49584C21.6314 8.00765 22.5696 7.76686 23.5178 7.80343H54.0597C56.4288 7.80343 58.5047 9.25926 58.788 11.1186L62.7988 37.5275C63.3172 40.219 60.8256 42.6436 58.1602 42.5177H35.6453C35.5433 43.3088 35.1529 44.0354 34.5479 44.5606C33.9428 45.0858 33.1649 45.3732 32.3608 45.3686L22.936 45.2287L22.901 46.4459C22.8901 46.9143 22.6944 47.3599 22.356 47.6869C22.0175 48.0139 21.5633 48.1961 21.0908 48.1946H9.17331C8.08941 48.2054 7.22862 47.2313 7.37737 46.1671ZM19.7214 27.5103C21.2582 27.4397 22.7193 26.8286 23.8431 25.7866C24.9669 24.7446 25.6798 23.3397 25.8541 21.8237L13.0813 19.731C12.086 23.7894 15.5313 27.8043 19.7214 27.5103ZM30.1864 21.9831C30.1748 22.0534 30.1492 22.1208 30.1113 22.1813C30.0733 22.2418 30.0238 22.2944 29.9654 22.3359C29.907 22.3774 29.8409 22.4071 29.7709 22.4232C29.7009 22.4394 29.6284 22.4417 29.5575 22.4301L26.9489 22.0027C26.7568 23.5302 26.095 24.962 25.0535 26.1033C24.012 27.2446 22.6414 28.04 21.128 28.3814H30.8842L31.3896 18.3967H28.2035C28.0886 19.8341 30.4577 20.4264 30.1864 21.9831ZM30.3549 38.8499L30.8296 29.4662H21.6038C22.1446 30.0531 22.5698 30.7353 22.8572 31.4775L22.8583 31.4797L22.8594 31.4829L22.8638 31.4916L22.8649 31.497C22.8703 31.4146 24.5525 37.1978 25.0174 38.774L30.3549 38.8499ZM11.9755 18.0224C11.9263 18.2351 12.0739 18.4705 12.296 18.503L28.7853 21.2042C28.665 21.0741 28.5228 20.9406 28.3774 20.8028C27.7857 20.2366 27.2016 19.4414 27.1447 18.8437C26.8417 14.5239 25.0775 12.415 21.2417 11.7923C16.6885 10.9223 12.8669 12.8891 11.9755 18.0224ZM23.5178 8.88825C22.8579 8.86969 22.2036 9.01426 21.614 9.30893C21.0244 9.6036 20.518 10.0391 20.1403 10.5762C25.1333 10.739 27.7561 13.9826 28.0722 17.3119H31.4453L31.8719 8.88825H23.5178ZM44.6097 8.88825H32.9667L32.5402 17.3119H45.0363L44.6097 8.88825ZM45.091 18.3967H32.4855L31.9802 28.3814H45.5974L45.091 18.3967ZM57.7063 11.2803C57.5061 9.96222 55.8699 8.88825 54.0597 8.88825H45.7057L46.1322 17.3119H58.6228L57.7063 11.2803ZM47.3528 41.4329H58.1591C60.1781 41.5522 62.1185 39.7427 61.7171 37.6903L60.468 29.4662H46.7469L47.3528 41.4329ZM60.3028 28.3814L58.7869 18.3967H46.1869L46.6922 28.3814H60.3028ZM45.6521 29.4662H31.9255L31.4497 38.8651L32.4724 38.8792C33.2078 38.8937 33.9168 39.1536 34.485 39.617C35.0531 40.0803 35.4473 40.7201 35.6038 41.4329H46.2569L45.6521 29.4662ZM8.633 46.8679C8.70028 46.9446 8.78351 47.0059 8.87697 47.0477C8.97043 47.0894 9.0719 47.1106 9.1744 47.1098H21.0919C22.0872 47.0989 21.7646 45.7375 21.8466 45.117C21.3134 44.9843 20.8223 44.721 20.4184 44.3512C20.0144 43.9814 19.7104 43.517 19.5344 43.0005L18.2536 38.7534C18.036 38.0634 19.1013 37.7478 19.3014 38.4431L20.5757 42.6718C20.72 43.0932 20.9918 43.4603 21.3541 43.7229C21.7164 43.9856 22.1515 44.1311 22.6002 44.1395L32.4177 44.2838C35.2461 44.2317 35.2855 40.0649 32.4549 39.9651L24.5963 39.8534C24.3567 39.8491 24.1478 39.6907 24.08 39.4629C23.5922 37.8139 22.0544 32.5037 21.8433 31.88V31.8767L21.8389 31.8713C20.2946 27.4995 13.7889 27.1447 11.8235 31.369C10.1085 34.9457 9.08362 41.6086 8.46128 46.3081C8.44748 46.4082 8.45567 46.51 8.48532 46.6066C8.51496 46.7033 8.56534 46.7924 8.633 46.8679Z"/>
</mask>
<path d="M7.37737 46.1671C8.00846 41.3938 9.05409 34.6191 10.8358 30.9025C11.2697 30.0185 11.9024 29.2452 12.6852 28.642C13.468 28.0388 14.3799 27.6219 15.3508 27.4235C14.036 26.6158 13.0077 25.4218 12.4088 24.0076C11.8099 22.5933 11.6703 21.0291 12.0094 19.5325C11.2394 19.3774 10.7352 18.5627 10.9036 17.8087C11.8464 13.1592 14.6749 10.6543 18.9547 10.5491C19.3601 9.69807 20.0088 8.98404 20.8201 8.49584C21.6314 8.00765 22.5696 7.76686 23.5178 7.80343H54.0597C56.4288 7.80343 58.5047 9.25926 58.788 11.1186L62.7988 37.5275C63.3172 40.219 60.8256 42.6436 58.1602 42.5177H35.6453C35.5433 43.3088 35.1529 44.0354 34.5479 44.5606C33.9428 45.0858 33.1649 45.3732 32.3608 45.3686L22.936 45.2287L22.901 46.4459C22.8901 46.9143 22.6944 47.3599 22.356 47.6869C22.0175 48.0139 21.5633 48.1961 21.0908 48.1946H9.17331C8.08941 48.2054 7.22862 47.2313 7.37737 46.1671ZM19.7214 27.5103C21.2582 27.4397 22.7193 26.8286 23.8431 25.7866C24.9669 24.7446 25.6798 23.3397 25.8541 21.8237L13.0813 19.731C12.086 23.7894 15.5313 27.8043 19.7214 27.5103ZM30.1864 21.9831C30.1748 22.0534 30.1492 22.1208 30.1113 22.1813C30.0733 22.2418 30.0238 22.2944 29.9654 22.3359C29.907 22.3774 29.8409 22.4071 29.7709 22.4232C29.7009 22.4394 29.6284 22.4417 29.5575 22.4301L26.9489 22.0027C26.7568 23.5302 26.095 24.962 25.0535 26.1033C24.012 27.2446 22.6414 28.04 21.128 28.3814H30.8842L31.3896 18.3967H28.2035C28.0886 19.8341 30.4577 20.4264 30.1864 21.9831ZM30.3549 38.8499L30.8296 29.4662H21.6038C22.1446 30.0531 22.5698 30.7353 22.8572 31.4775L22.8583 31.4797L22.8594 31.4829L22.8638 31.4916L22.8649 31.497C22.8703 31.4146 24.5525 37.1978 25.0174 38.774L30.3549 38.8499ZM11.9755 18.0224C11.9263 18.2351 12.0739 18.4705 12.296 18.503L28.7853 21.2042C28.665 21.0741 28.5228 20.9406 28.3774 20.8028C27.7857 20.2366 27.2016 19.4414 27.1447 18.8437C26.8417 14.5239 25.0775 12.415 21.2417 11.7923C16.6885 10.9223 12.8669 12.8891 11.9755 18.0224ZM23.5178 8.88825C22.8579 8.86969 22.2036 9.01426 21.614 9.30893C21.0244 9.6036 20.518 10.0391 20.1403 10.5762C25.1333 10.739 27.7561 13.9826 28.0722 17.3119H31.4453L31.8719 8.88825H23.5178ZM44.6097 8.88825H32.9667L32.5402 17.3119H45.0363L44.6097 8.88825ZM45.091 18.3967H32.4855L31.9802 28.3814H45.5974L45.091 18.3967ZM57.7063 11.2803C57.5061 9.96222 55.8699 8.88825 54.0597 8.88825H45.7057L46.1322 17.3119H58.6228L57.7063 11.2803ZM47.3528 41.4329H58.1591C60.1781 41.5522 62.1185 39.7427 61.7171 37.6903L60.468 29.4662H46.7469L47.3528 41.4329ZM60.3028 28.3814L58.7869 18.3967H46.1869L46.6922 28.3814H60.3028ZM45.6521 29.4662H31.9255L31.4497 38.8651L32.4724 38.8792C33.2078 38.8937 33.9168 39.1536 34.485 39.617C35.0531 40.0803 35.4473 40.7201 35.6038 41.4329H46.2569L45.6521 29.4662ZM8.633 46.8679C8.70028 46.9446 8.78351 47.0059 8.87697 47.0477C8.97043 47.0894 9.0719 47.1106 9.1744 47.1098H21.0919C22.0872 47.0989 21.7646 45.7375 21.8466 45.117C21.3134 44.9843 20.8223 44.721 20.4184 44.3512C20.0144 43.9814 19.7104 43.517 19.5344 43.0005L18.2536 38.7534C18.036 38.0634 19.1013 37.7478 19.3014 38.4431L20.5757 42.6718C20.72 43.0932 20.9918 43.4603 21.3541 43.7229C21.7164 43.9856 22.1515 44.1311 22.6002 44.1395L32.4177 44.2838C35.2461 44.2317 35.2855 40.0649 32.4549 39.9651L24.5963 39.8534C24.3567 39.8491 24.1478 39.6907 24.08 39.4629C23.5922 37.8139 22.0544 32.5037 21.8433 31.88V31.8767L21.8389 31.8713C20.2946 27.4995 13.7889 27.1447 11.8235 31.369C10.1085 34.9457 9.08362 41.6086 8.46128 46.3081C8.44748 46.4082 8.45567 46.51 8.48532 46.6066C8.51496 46.7033 8.56534 46.7924 8.633 46.8679Z" fill="#313C72"/>
<path d="M7.37737 46.1671C8.00846 41.3938 9.05409 34.6191 10.8358 30.9025C11.2697 30.0185 11.9024 29.2452 12.6852 28.642C13.468 28.0388 14.3799 27.6219 15.3508 27.4235C14.036 26.6158 13.0077 25.4218 12.4088 24.0076C11.8099 22.5933 11.6703 21.0291 12.0094 19.5325C11.2394 19.3774 10.7352 18.5627 10.9036 17.8087C11.8464 13.1592 14.6749 10.6543 18.9547 10.5491C19.3601 9.69807 20.0088 8.98404 20.8201 8.49584C21.6314 8.00765 22.5696 7.76686 23.5178 7.80343H54.0597C56.4288 7.80343 58.5047 9.25926 58.788 11.1186L62.7988 37.5275C63.3172 40.219 60.8256 42.6436 58.1602 42.5177H35.6453C35.5433 43.3088 35.1529 44.0354 34.5479 44.5606C33.9428 45.0858 33.1649 45.3732 32.3608 45.3686L22.936 45.2287L22.901 46.4459C22.8901 46.9143 22.6944 47.3599 22.356 47.6869C22.0175 48.0139 21.5633 48.1961 21.0908 48.1946H9.17331C8.08941 48.2054 7.22862 47.2313 7.37737 46.1671ZM19.7214 27.5103C21.2582 27.4397 22.7193 26.8286 23.8431 25.7866C24.9669 24.7446 25.6798 23.3397 25.8541 21.8237L13.0813 19.731C12.086 23.7894 15.5313 27.8043 19.7214 27.5103ZM30.1864 21.9831C30.1748 22.0534 30.1492 22.1208 30.1113 22.1813C30.0733 22.2418 30.0238 22.2944 29.9654 22.3359C29.907 22.3774 29.8409 22.4071 29.7709 22.4232C29.7009 22.4394 29.6284 22.4417 29.5575 22.4301L26.9489 22.0027C26.7568 23.5302 26.095 24.962 25.0535 26.1033C24.012 27.2446 22.6414 28.04 21.128 28.3814H30.8842L31.3896 18.3967H28.2035C28.0886 19.8341 30.4577 20.4264 30.1864 21.9831ZM30.3549 38.8499L30.8296 29.4662H21.6038C22.1446 30.0531 22.5698 30.7353 22.8572 31.4775L22.8583 31.4797L22.8594 31.4829L22.8638 31.4916L22.8649 31.497C22.8703 31.4146 24.5525 37.1978 25.0174 38.774L30.3549 38.8499ZM11.9755 18.0224C11.9263 18.2351 12.0739 18.4705 12.296 18.503L28.7853 21.2042C28.665 21.0741 28.5228 20.9406 28.3774 20.8028C27.7857 20.2366 27.2016 19.4414 27.1447 18.8437C26.8417 14.5239 25.0775 12.415 21.2417 11.7923C16.6885 10.9223 12.8669 12.8891 11.9755 18.0224ZM23.5178 8.88825C22.8579 8.86969 22.2036 9.01426 21.614 9.30893C21.0244 9.6036 20.518 10.0391 20.1403 10.5762C25.1333 10.739 27.7561 13.9826 28.0722 17.3119H31.4453L31.8719 8.88825H23.5178ZM44.6097 8.88825H32.9667L32.5402 17.3119H45.0363L44.6097 8.88825ZM45.091 18.3967H32.4855L31.9802 28.3814H45.5974L45.091 18.3967ZM57.7063 11.2803C57.5061 9.96222 55.8699 8.88825 54.0597 8.88825H45.7057L46.1322 17.3119H58.6228L57.7063 11.2803ZM47.3528 41.4329H58.1591C60.1781 41.5522 62.1185 39.7427 61.7171 37.6903L60.468 29.4662H46.7469L47.3528 41.4329ZM60.3028 28.3814L58.7869 18.3967H46.1869L46.6922 28.3814H60.3028ZM45.6521 29.4662H31.9255L31.4497 38.8651L32.4724 38.8792C33.2078 38.8937 33.9168 39.1536 34.485 39.617C35.0531 40.0803 35.4473 40.7201 35.6038 41.4329H46.2569L45.6521 29.4662ZM8.633 46.8679C8.70028 46.9446 8.78351 47.0059 8.87697 47.0477C8.97043 47.0894 9.0719 47.1106 9.1744 47.1098H21.0919C22.0872 47.0989 21.7646 45.7375 21.8466 45.117C21.3134 44.9843 20.8223 44.721 20.4184 44.3512C20.0144 43.9814 19.7104 43.517 19.5344 43.0005L18.2536 38.7534C18.036 38.0634 19.1013 37.7478 19.3014 38.4431L20.5757 42.6718C20.72 43.0932 20.9918 43.4603 21.3541 43.7229C21.7164 43.9856 22.1515 44.1311 22.6002 44.1395L32.4177 44.2838C35.2461 44.2317 35.2855 40.0649 32.4549 39.9651L24.5963 39.8534C24.3567 39.8491 24.1478 39.6907 24.08 39.4629C23.5922 37.8139 22.0544 32.5037 21.8433 31.88V31.8767L21.8389 31.8713C20.2946 27.4995 13.7889 27.1447 11.8235 31.369C10.1085 34.9457 9.08362 41.6086 8.46128 46.3081C8.44748 46.4082 8.45567 46.51 8.48532 46.6066C8.51496 46.7033 8.56534 46.7924 8.633 46.8679Z" stroke="#313C72" stroke-width="0.8" mask="url(#path-1-outside-1_196_4739)"/>
</g>
</g>
</g>
</svg>
